<svg width="356" height="356" viewBox="0 0 356 356" fill="none" xmlns="http://www.w3.org/2000/svg">
<path fill-rule="evenodd" clip-rule="evenodd" d="M177.181 2.25195C177.666 1.72367 178.09 1.51677 178.455 1.50099L178.556 1.50147C178.918 1.52063 179.338 1.72856 179.819 2.25195C180.323 2.8011 180.843 3.64674 181.37 4.80329C182.423 7.11299 183.45 10.5498 184.434 15.0172C186.402 23.9437 188.177 36.8802 189.669 52.8885C192.653 84.8994 194.5 129.133 194.5 178C194.5 226.867 192.653 271.101 189.669 303.111C188.177 319.12 186.402 332.056 184.434 340.983C183.45 345.45 182.423 348.887 181.37 351.197C180.843 352.353 180.323 353.199 179.819 353.748C179.338 354.272 178.917 354.479 178.555 354.499L178.454 354.499C178.09 354.483 177.666 354.276 177.181 353.748C176.677 353.199 176.157 352.353 175.63 351.197C174.577 348.887 173.55 345.45 172.566 340.983C170.598 332.056 168.823 319.12 167.331 303.111C164.347 271.101 162.5 226.867 162.5 178C162.5 129.133 164.347 84.8994 167.331 52.8885C168.823 36.8802 170.598 23.9437 172.566 15.0172C173.55 10.5498 174.577 7.11299 175.63 4.80329C176.157 3.64674 176.677 2.8011 177.181 2.25195ZM258.471 52.5739C243.226 28.5879 223.603 11.3839 201.607 4.21052C229.25 10.6345 253.992 28.1432 273.062 53.1453C297.42 85.0814 312.5 129.222 312.5 178C312.5 226.777 297.42 270.919 273.062 302.855C253.992 327.857 229.25 345.365 201.607 351.789C223.603 344.616 243.226 327.412 258.471 303.426C278.888 271.304 291.5 226.957 291.5 178C291.5 129.042 278.888 84.6963 258.471 52.5739ZM178.306 355.5C178.204 355.5 178.102 355.5 178 355.5C79.9695 355.5 0.5 276.031 0.5 178C0.5 79.9694 79.9695 0.5 178 0.5C178.079 0.5 178.158 0.500067 178.238 0.5002L178.305 0.500257L178.5 0.5C178.793 0.5 179.085 0.501747 179.378 0.505235C276.774 1.24561 355.5 80.4291 355.5 178C355.5 275.571 276.773 354.755 179.376 355.495C179.159 355.497 178.943 355.499 178.726 355.5C178.651 355.5 178.575 355.5 178.5 355.5C178.435 355.5 178.371 355.5 178.306 355.5ZM213.272 5.0249C293.849 21.3674 354.5 92.6008 354.5 178C354.5 263.399 293.849 334.632 213.272 350.975C282.751 332.828 334.5 262.229 334.5 178C334.5 93.7713 282.751 23.1719 213.272 5.0249ZM142.728 5.02492C62.1511 21.3675 1.5 92.6008 1.5 178C1.5 263.399 62.151 334.632 142.728 350.975C73.2486 332.828 21.5 262.229 21.5 178C21.5 93.7714 73.2486 23.1719 142.728 5.02492ZM149.116 351.46C77.0746 336.096 22.5 264.324 22.5 178C22.5 91.6763 77.0745 19.9046 149.116 4.54026C123.255 11.8936 100.162 28.914 82.143 52.5389C57.6406 84.6642 42.5 129.023 42.5 178C42.5 226.977 57.6406 271.336 82.143 303.461C100.162 327.086 123.255 344.106 149.116 351.46ZM206.884 351.46C232.745 344.106 255.838 327.086 273.857 303.461C298.359 271.336 313.5 226.977 313.5 178C313.5 129.023 298.359 84.6642 273.857 52.5389C255.838 28.914 232.745 11.8936 206.884 4.54026C278.926 19.9046 333.5 91.6763 333.5 178C333.5 264.324 278.925 336.095 206.884 351.46ZM98.5285 303.426C114.304 328.247 134.768 345.805 157.698 352.502C128.723 346.743 102.764 328.849 82.9381 302.855C58.5801 270.919 43.5 226.777 43.5 178C43.5 129.222 58.5801 85.0814 82.9381 53.1453C102.764 27.1509 128.723 9.25663 157.698 3.49827C134.768 10.1948 114.304 27.7532 98.5285 52.5739C78.1117 84.6963 65.5 129.042 65.5 178C65.5 226.957 78.1117 271.304 98.5285 303.426ZM182.28 4.38873C181.787 3.30601 181.273 2.42548 180.734 1.77942C182.615 2.25089 184.483 3.31759 186.329 4.96871C188.907 7.27412 191.417 10.6974 193.825 15.1474C198.639 24.0468 202.99 36.9574 206.65 52.9536C213.969 84.938 218.5 129.149 218.5 178C218.5 226.851 213.969 271.062 206.65 303.046C202.99 319.043 198.639 331.953 193.825 340.853C191.417 345.303 188.907 348.726 186.329 351.031C184.483 352.682 182.615 353.749 180.734 354.221C181.273 353.574 181.787 352.694 182.28 351.611C183.376 349.205 184.421 345.687 185.411 341.198C187.392 332.211 189.171 319.227 190.665 303.204C193.653 271.154 195.5 226.888 195.5 178C195.5 129.112 193.653 84.8461 190.665 52.7957C189.171 36.7733 187.392 23.7887 185.411 14.8019C184.421 10.3125 183.376 6.79462 182.28 4.38873ZM162.969 3.18528C138.325 8.57815 116.207 26.6232 99.3725 53.1103C79.0723 85.0493 66.5 129.203 66.5 178C66.5 226.797 79.0723 270.951 99.3725 302.89C116.208 329.377 138.325 347.422 162.969 352.815C144.511 346.353 128.076 328.585 115.474 303.382C99.417 271.268 89.5 226.938 89.5 178C89.5 129.062 99.417 84.7322 115.474 52.6185C128.076 27.4149 144.511 9.64685 162.969 3.18528ZM194.031 3.18529C218.675 8.57817 240.793 26.6232 257.628 53.1103C277.928 85.0493 290.5 129.203 290.5 178C290.5 226.797 277.928 270.951 257.628 302.89C240.793 329.377 218.675 347.422 194.031 352.815C212.489 346.353 228.924 328.585 241.526 303.382C257.583 271.268 267.5 226.938 267.5 178C267.5 129.062 257.583 84.7322 241.526 52.6185C228.924 27.4149 212.489 9.64686 194.031 3.18529ZM174.72 351.611C175.213 352.694 175.727 353.574 176.266 354.221C174.385 353.749 172.517 352.682 170.671 351.031C168.093 348.726 165.583 345.303 163.175 340.853C158.361 331.953 154.01 319.043 150.35 303.046C143.031 271.062 138.5 226.851 138.5 178C138.5 129.149 143.031 84.938 150.35 52.9536C154.01 36.9574 158.361 24.0468 163.175 15.1474C165.583 10.6974 168.093 7.27412 170.671 4.96871C172.517 3.31759 174.385 2.25089 176.266 1.77942C175.727 2.42548 175.213 3.30601 174.72 4.38873C173.624 6.79462 172.579 10.3125 171.589 14.8019C169.609 23.7887 167.829 36.7733 166.335 52.7957C163.347 84.8461 161.5 129.112 161.5 178C161.5 226.888 163.347 271.154 166.335 303.204C167.829 319.227 169.609 332.211 171.589 341.198C172.579 345.687 173.624 349.205 174.72 351.611ZM184.317 2.2256C185.225 2.77005 186.118 3.43834 186.995 4.22331C189.69 6.63349 192.266 10.1649 194.704 14.6716C199.581 23.6856 203.956 36.6961 207.625 52.7306C214.965 84.8076 219.5 129.097 219.5 178C219.5 226.903 214.965 271.192 207.625 303.269C203.956 319.304 199.581 332.314 194.704 341.328C192.266 345.835 189.69 349.367 186.995 351.777C186.118 352.562 185.225 353.23 184.317 353.774C190.93 352.118 197.287 347.659 203.228 340.764C210.891 331.87 217.814 318.97 223.639 302.987C235.286 271.024 242.5 226.834 242.5 178C242.5 129.166 235.286 84.9761 223.639 53.0133C217.814 37.0298 210.891 24.1303 203.228 15.2359C197.287 8.34081 190.93 3.88235 184.317 2.2256ZM172.683 353.774C171.775 353.23 170.882 352.562 170.005 351.777C167.309 349.367 164.734 345.835 162.296 341.328C157.419 332.314 153.044 319.304 149.375 303.269C142.035 271.192 137.5 226.903 137.5 178C137.5 129.097 142.035 84.8076 149.375 52.7306C153.044 36.6961 157.419 23.6856 162.296 14.6716C164.734 10.1649 167.309 6.63349 170.005 4.22331C170.882 3.43834 171.775 2.77005 172.683 2.2256C166.07 3.88235 159.713 8.34081 153.772 15.2359C146.109 24.1303 139.186 37.0298 133.361 53.0133C121.714 84.9761 114.5 129.166 114.5 178C114.5 226.834 121.714 271.024 133.361 302.987C139.186 318.97 146.109 331.87 153.772 340.764C159.713 347.659 166.07 352.118 172.683 353.774ZM203.985 14.5832C199.216 9.04779 194.13 5.00147 188.807 2.7019C208.87 7.41089 226.95 25.7023 240.632 53.0657C256.606 85.0133 266.5 129.184 266.5 178C266.5 226.816 256.606 270.987 240.632 302.934C226.95 330.298 208.87 348.589 188.807 353.298C194.13 350.999 199.216 346.952 203.985 341.417C211.755 332.398 218.73 319.376 224.578 303.329C236.275 271.23 243.5 226.92 243.5 178C243.5 129.08 236.275 84.7695 224.578 52.6709C218.73 36.6237 211.755 23.6022 203.985 14.5832ZM153.015 341.417C157.784 346.952 162.87 350.998 168.193 353.298C148.13 348.589 130.05 330.298 116.368 302.934C100.394 270.987 90.5 226.816 90.5 178C90.5 129.184 100.394 85.0133 116.368 53.0657C130.05 25.7023 148.13 7.41084 168.193 2.70188C162.87 5.00145 157.784 9.04778 153.015 14.5832C145.245 23.6022 138.27 36.6237 132.422 52.6709C120.725 84.7695 113.5 129.08 113.5 178C113.5 226.92 120.725 271.23 132.422 303.329C138.27 319.376 145.245 332.398 153.015 341.417Z" fill="url(#paint0_radial_460_3538)"/>
<defs>
<radialGradient id="paint0_radial_460_3538" cx="0" cy="0" r="1" gradientUnits="userSpaceOnUse" gradientTransform="translate(178 178) rotate(90.8138) scale(176.018 607.18)">
<stop stop-color="#D9D9D9"/>
<stop offset="1" stop-color="#8F8F8F" stop-opacity="0.12"/>
</radialGradient>
</defs>
</svg>
